<svg xmlns="http://www.w3.org/2000/svg" xmlns:xlink="http://www.w3.org/1999/xlink" id="Capa_1" x="0px" y="0px" width="135px" height="70px" viewBox="0 0 135 70" xml:space="preserve">
<g id="XMLID_2214_">
	<path id="XMLID_2231_" fill="#FFFFFF" d="M16.354,6.15c-5.663,0-10.274,4.604-10.274,10.271v37.158   c0,5.664,4.611,10.272,10.274,10.272h102.293c5.666,0,10.272-4.608,10.272-10.272V16.421c0-5.666-4.606-10.271-10.272-10.271   H16.354 M118.647,69.039H16.354c-8.522,0-15.462-6.933-15.462-15.46V16.421c0-8.523,6.939-15.46,15.462-15.46h102.293   c8.522,0,15.459,6.937,15.459,15.46v37.158C134.106,62.106,127.17,69.039,118.647,69.039"></path>
	<path id="XMLID_2228_" fill="#FFFFFF" d="M14.293,41.746h3.459c0.912,0,1.778-0.157,2.566-0.471   c0.785-0.312,1.488-0.757,2.088-1.318c0.6-0.559,1.074-1.23,1.414-1.999c0.342-0.768,0.515-1.619,0.515-2.528   c0-0.896-0.173-1.768-0.515-2.596c-0.344-0.828-0.82-1.567-1.42-2.193c-0.6-0.629-1.304-1.134-2.096-1.506   c-0.783-0.37-1.645-0.556-2.553-0.556h-3.459V41.746 M17.752,45.68h-7.197l-0.193-0.2V24.843l0.193-0.197h7.197   c1.453,0,2.838,0.295,4.104,0.873s2.383,1.366,3.317,2.342c0.939,0.976,1.688,2.133,2.239,3.437   c0.547,1.308,0.826,2.698,0.826,4.133c0,1.433-0.279,2.795-0.828,4.043c-0.549,1.249-1.301,2.345-2.24,3.263   c-0.938,0.916-2.055,1.646-3.322,2.162C20.586,45.417,19.205,45.68,17.752,45.68"></path>
	<path id="XMLID_2226_" fill="#FFFFFF" d="M41.859,30.543c-1.453,0-1.909,1.071-1.909,1.179v7.038c0,0.426-0.083,0.821-0.249,1.187   c-0.163,0.369-0.391,0.699-0.667,0.975c-0.274,0.276-0.601,0.494-0.97,0.652c-0.736,0.309-1.646,0.309-2.396-0.004   c-0.377-0.154-0.709-0.372-0.982-0.648c-0.275-0.275-0.5-0.602-0.668-0.975c-0.164-0.365-0.247-0.764-0.247-1.187v-7.038   c0-0.107-0.454-1.179-1.909-1.179s-1.906,1.071-1.906,1.179v7.012c0,0.944,0.184,1.849,0.549,2.685   c0.361,0.837,0.865,1.578,1.499,2.217c0.634,0.628,1.37,1.134,2.196,1.499c0.826,0.359,1.728,0.546,2.677,0.546   c0.948,0,1.851-0.187,2.688-0.546c0.831-0.365,1.57-0.867,2.185-1.506c0.615-0.635,1.108-1.371,1.468-2.195   c0.364-0.824,0.547-1.724,0.547-2.673v-7.038C43.764,31.614,43.309,30.543,41.859,30.543"></path>
	<path id="XMLID_2225_" fill="#FFFFFF" d="M75.178,30.543c-1.457,0-1.908,1.071-1.908,1.179v7.012l0,0v0.026   c0,0.426-0.084,0.821-0.25,1.187c-0.162,0.369-0.386,0.699-0.665,0.975c-0.276,0.276-0.603,0.494-0.968,0.652   c-0.738,0.309-1.648,0.309-2.4-0.004c-0.377-0.154-0.709-0.372-0.981-0.648c-0.275-0.275-0.502-0.602-0.669-0.975   c-0.166-0.365-0.248-0.764-0.248-1.187v-7.038c0-0.107-0.453-1.179-1.906-1.179s-1.908,1.071-1.908,1.179v7.012   c0,0.944,0.187,1.849,0.549,2.685c0.362,0.837,0.867,1.578,1.5,2.217c0.631,0.628,1.369,1.134,2.197,1.499   c0.828,0.359,1.726,0.546,2.674,0.546c0.951,0,1.852-0.187,2.689-0.546c0.835-0.365,1.57-0.867,2.186-1.506   c0.614-0.635,1.106-1.371,1.466-2.195c0.366-0.824,0.549-1.724,0.549-2.673v-7.038C77.083,31.614,76.631,30.543,75.178,30.543"></path>
	<path id="XMLID_2222_" fill="#FFFFFF" d="M57.361,39.817c-0.236,0.535-0.555,1.008-0.948,1.399   c-0.394,0.396-0.864,0.714-1.399,0.948c-1.064,0.469-2.344,0.469-3.412,0c-0.531-0.236-1-0.553-1.396-0.948   c-0.393-0.392-0.711-0.864-0.944-1.399c-0.236-0.535-0.353-1.107-0.353-1.706c0-0.595,0.116-1.171,0.35-1.702   c0.236-0.535,0.555-1.008,0.947-1.4c0.396-0.393,0.865-0.711,1.396-0.947c0.537-0.231,1.111-0.353,1.706-0.353   c0.599,0,1.171,0.121,1.706,0.351c0.535,0.238,1.008,0.557,1.399,0.949c0.394,0.393,0.712,0.865,0.944,1.4   c0.236,0.531,0.353,1.104,0.353,1.702S57.594,39.282,57.361,39.817 M60.893,34.866c-0.422-0.994-1.016-1.869-1.754-2.6   c-0.74-0.73-1.617-1.313-2.611-1.736c-0.994-0.42-2.076-0.635-3.22-0.635c-1.141,0-2.222,0.22-3.216,0.65   c-0.995,0.432-1.867,1.023-2.597,1.752c-0.731,0.732-1.321,1.607-1.751,2.598c-0.434,0.994-0.652,2.077-0.652,3.216   c0,1.144,0.219,2.225,0.652,3.222c0.43,0.988,1.02,1.864,1.751,2.594c0.729,0.729,1.599,1.317,2.597,1.754   c0.994,0.43,2.075,0.648,3.216,0.648c0.444,0,0.895-0.051,1.343-0.152c0.439-0.102,0.873-0.231,1.281-0.391   c0.405-0.158,0.799-0.35,1.163-0.562c0.222-0.129,0.429-0.266,0.615-0.409v6.508v0.003v0.118c0,0.108,0.456,1.179,1.909,1.179   s1.904-1.07,1.904-1.179V38.111C61.523,36.95,61.311,35.856,60.893,34.866"></path>
	<path id="XMLID_2221_" fill="#FFFFFF" d="M103.01,33.991l-0.188-0.282c-0.242-0.312-0.617-0.44-1.346-0.44   c-0.445,0-0.852,0.135-1.207,0.402c-0.33,0.247-0.442,0.597-0.34,1.068c0.061,0.264,0.312,0.482,0.752,0.654   c0.492,0.195,1.246,0.46,2.244,0.793c0.596,0.199,1.164,0.441,1.68,0.721c0.529,0.283,0.994,0.633,1.39,1.038   c0.399,0.413,0.719,0.911,0.941,1.479c0.222,0.573,0.339,1.243,0.339,1.99c0,0.773-0.163,1.475-0.479,2.08   c-0.319,0.604-0.744,1.122-1.277,1.538c-0.528,0.417-1.146,0.739-1.828,0.962c-0.691,0.22-1.414,0.336-2.155,0.336   c-0.668,0-1.351-0.129-2.032-0.384c-0.674-0.251-1.289-0.61-1.828-1.065c-0.535-0.456-0.984-1.021-1.33-1.68   c-0.336-0.648-0.256-1.044-0.256-1.051l0.003-0.01c0.021-0.229,0.123-1.379,1.466-1.6c1.431-0.239,2.01,0.492,2.082,0.679   c0.07,0.181,0.197,0.677,0.553,1.047c0.349,0.362,0.801,0.542,1.387,0.542c0.541,0,0.967-0.156,1.283-0.474   c0.326-0.321,0.492-0.642,0.508-0.991c0.021-0.512-0.148-0.869-0.508-1.089c-0.409-0.246-1.024-0.477-1.819-0.687   c-0.556-0.137-1.104-0.308-1.642-0.504c-0.547-0.203-1.051-0.475-1.504-0.808c-0.466-0.339-0.854-0.765-1.157-1.264   c-0.313-0.509-0.509-1.134-0.591-1.869c-0.061-0.743,0.043-1.437,0.309-2.073c0.266-0.632,0.658-1.189,1.17-1.66   c0.506-0.466,1.107-0.84,1.782-1.112c0.679-0.274,1.413-0.413,2.185-0.413c0.648,0,1.268,0.113,1.84,0.338   c0.564,0.223,1.076,0.518,1.525,0.867c0.449,0.359,0.818,0.761,1.104,1.199l0.103,0.168l0.007,0.035   c0.044,0.092,0.087,1.155-1.124,1.737s-2.012-0.116-2.055-0.21L103.01,33.991"></path>
	<path id="XMLID_2218_" fill="#FFFFFF" d="M120.486,39.851c-0.223,0.53-0.542,0.997-0.944,1.393   c-0.405,0.395-0.881,0.703-1.417,0.917c-1.063,0.431-2.357,0.44-3.428-0.027c-0.535-0.233-1.008-0.554-1.403-0.945   c-0.392-0.395-0.715-0.868-0.947-1.4c-0.233-0.535-0.353-1.106-0.353-1.706c0-0.595,0.119-1.17,0.353-1.702   c0.232-0.534,0.556-1.004,0.947-1.401c0.396-0.395,0.868-0.71,1.403-0.946c0.535-0.232,1.11-0.353,1.713-0.353   c0.602,0,1.177,0.12,1.713,0.353c0.535,0.234,1.01,0.552,1.402,0.946c0.393,0.394,0.715,0.866,0.947,1.401   c0.237,0.532,0.355,1.107,0.355,1.702C120.828,38.72,120.713,39.313,120.486,39.851 M123.991,34.862   c-0.429-0.987-1.021-1.863-1.749-2.596c-0.731-0.731-1.605-1.319-2.6-1.752c-0.992-0.43-2.075-0.648-3.216-0.648   c-1.144,0-2.228,0.219-3.22,0.648c-0.994,0.433-1.871,1.021-2.609,1.75c-0.742,0.732-1.337,1.607-1.77,2.598   c-0.432,0.994-0.648,2.075-0.648,3.219c0,1.141,0.196,2.222,0.59,3.214c0.391,0.995,0.95,1.874,1.662,2.614   c0.715,0.743,1.59,1.335,2.604,1.754c1.011,0.422,2.15,0.635,3.392,0.635c1.612,0,3.093-0.426,4.401-1.271v0.092   c0,0.108,0.453,1.179,1.906,1.179s1.908-1.07,1.908-1.179v-7.038C124.643,36.94,124.424,35.856,123.991,34.862"></path>
	<path id="XMLID_2215_" fill="#FFFFFF" d="M82.553,36.429l0.073-0.236c0.02-0.058,1.153-2.814,4.054-2.814   c2.902,0,3.98,2.585,4.076,2.814l0.07,0.236H82.553 M94.926,38.085c0-1.146-0.217-2.227-0.645-3.221   c-0.177-0.409-2.191-4.998-7.609-4.998c-5.42,0-7.531,4.896-7.574,4.998c-0.393,0.916-0.599,1.907-0.632,2.951l-0.013,0.031   l0.01,0.055l-0.01,0.184c0,1.141,0.216,2.225,0.645,3.215c0.43,0.994,1.018,1.869,1.752,2.601l0.366,0.329l0.123,0.113l0.229,0.183   c0.519,0.419,1.09,0.788,1.726,1.081c0.762,0.35,1.606,0.565,2.521,0.651c0.283,0.026,0.565,0.042,0.857,0.042l0.018-0.002   l0.02,0.002c0.29,0,0.576-0.016,0.854-0.042c0.915-0.086,1.759-0.302,2.521-0.651c0.636-0.293,1.211-0.662,1.727-1.081l0.119-0.095   v0.004c0.08-0.077,0.521-1.169-0.52-2.213c-1.037-1.036-2.127-0.599-2.207-0.52h-0.004c-0.213,0.15-0.441,0.293-0.694,0.409   c-0.405,0.187-0.858,0.303-1.344,0.348c-0.153,0.019-0.306,0.024-0.462,0.024h-0.01h-0.01c-0.156,0-0.31-0.006-0.459-0.024   c-0.489-0.045-0.945-0.161-1.351-0.348c-0.339-0.156-0.646-0.353-0.921-0.577l-0.127-0.098l-0.062-0.06l-0.199-0.18   c-0.347-0.346-0.625-0.765-0.849-1.226h4.759V39.97h7.238C94.85,39.362,94.926,38.733,94.926,38.085"></path>
</g>
</svg>